<?xml version="1.0" standalone="no"?>
<!DOCTYPE svg PUBLIC "-//W3C//DTD SVG 20010904//EN"
 "http://www.w3.org/TR/2001/REC-SVG-20010904/DTD/svg10.dtd">
<svg version="1.0" xmlns="http://www.w3.org/2000/svg"
 width="460.000000pt" height="460.000000pt" viewBox="0 0 460.000000 460.000000"
 preserveAspectRatio="xMidYMid meet">
<metadata>
Created by potrace 1.14, written by Peter Selinger 2001-2017
</metadata>
<g transform="translate(0.000000,460.000000) scale(0.100000,-0.100000)"
fill="#000000" stroke="none">
<path d="M0 2300 l0 -2300 2004 0 c1594 0 2006 3 2010 13 5 9 7 9 12 0 8 -18
41 -16 48 2 3 8 12 15 21 15 8 0 23 4 33 9 9 5 30 15 46 22 22 11 25 15 12 17
-9 2 -24 -2 -32 -9 -11 -9 -18 -9 -26 -1 -17 17 30 32 81 26 31 -4 41 -1 41 9
0 17 31 39 81 57 66 24 72 32 57 79 -10 27 -12 60 -8 98 10 82 2 183 -15 210
-8 12 -15 31 -15 42 0 23 -23 90 -47 136 -17 33 -100 115 -116 115 -6 0 -18 6
-26 13 -22 18 -114 44 -184 53 -32 3 -64 13 -72 21 -8 8 -19 12 -24 9 -16 -10
-20 21 -5 43 8 11 12 21 7 21 -4 0 0 5 9 11 10 5 18 14 18 19 0 12 34 53 78
93 17 17 32 35 33 41 0 6 20 38 45 71 24 33 53 77 64 97 25 46 245 280 333
353 13 11 41 34 63 50 81 63 74 11 74 526 0 406 -2 460 -15 449 -8 -7 -21 -24
-28 -39 -51 -99 -72 -134 -88 -144 -11 -7 -19 -17 -19 -24 0 -7 -4 -13 -10
-13 -5 0 -10 -5 -10 -11 0 -6 -25 -34 -55 -62 -30 -27 -55 -54 -55 -58 0 -11
-140 -152 -145 -147 -2 2 -7 23 -11 46 -6 38 -5 42 14 42 26 0 37 17 23 33
-12 15 3 91 26 126 8 13 13 35 10 48 -3 19 0 27 14 30 20 6 24 16 34 96 4 31
11 47 21 47 10 0 14 12 14 38 0 42 18 75 39 70 9 -2 20 15 31 45 9 26 22 53
28 59 7 7 12 18 12 25 0 7 6 13 13 13 6 1 21 15 32 33 11 18 30 33 43 35 12 2
22 10 22 18 0 8 13 17 30 21 l30 6 0 393 c0 387 0 394 -20 394 -11 0 -20 5
-20 10 0 6 8 10 19 10 28 0 26 48 -3 52 -19 3 -21 8 -17 62 2 41 -1 61 -10 67
-10 6 -8 9 8 9 37 0 43 45 43 311 l0 249 -2300 0 -2300 0 0 -2300z m2270 2011
c0 -6 -4 -13 -10 -16 -5 -3 -10 1 -10 9 0 9 5 16 10 16 6 0 10 -4 10 -9z
m1096 -36 c4 -14 4 -29 0 -32 -3 -4 -6 3 -6 15 0 12 -4 22 -10 22 -5 0 -10 5
-10 10 0 21 20 9 26 -15z m-1133 4 c-15 -15 -4 -59 13 -52 8 3 14 12 14 20 0
9 5 11 13 6 6 -4 19 -8 27 -9 50 -3 51 -4 45 -24 -4 -11 -2 -21 4 -21 6 -1 16
-2 23 -3 24 -2 18 -23 -7 -23 -14 0 -25 3 -25 8 0 5 -4 9 -10 9 -5 0 -10 -6
-10 -14 0 -12 -7 -12 -37 -4 -36 10 -38 9 -77 -32 -32 -34 -48 -44 -82 -48
-41 -4 -43 -6 -40 -35 3 -20 -3 -37 -15 -51 -11 -11 -19 -27 -19 -37 0 -9 -6
-22 -14 -28 -24 -20 -29 22 -7 62 10 19 18 43 18 53 -1 11 3 18 10 17 7 -2 12
9 13 25 1 58 5 90 12 86 3 -2 9 2 11 8 3 8 6 6 6 -4 1 -10 6 -18 11 -18 6 0
13 0 18 0 4 0 12 15 19 33 6 17 12 24 12 15 1 -10 5 -18 10 -18 14 0 41 41 41
61 0 10 6 20 13 22 20 8 22 8 10 -4z m-49 -20 c-6 -11 -24 -2 -24 11 0 5 7 7
15 4 8 -4 12 -10 9 -15z m-54 -19 c0 -5 -4 -10 -10 -10 -5 0 -10 5 -10 10 0 6
5 10 10 10 6 0 10 -4 10 -10z m-306 -21 c-3 -5 -10 -7 -15 -3 -5 3 -7 10 -3
15 3 5 10 7 15 3 5 -3 7 -10 3 -15z m196 11 c0 -5 -4 -10 -10 -10 -5 0 -10 5
-10 10 0 6 5 10 10 10 6 0 10 -4 10 -10z m1400 -16 c0 -8 -7 -14 -15 -14 -17
0 -18 2 -9 24 7 18 24 12 24 -10z m-872 -1 c-2 -11 6 -19 21 -23 28 -6 35 -19
22 -38 -6 -10 -20 -11 -59 -4 -41 7 -54 6 -66 -6 -19 -20 -27 -13 -19 16 3 12
12 22 21 22 8 0 12 3 8 7 -4 4 8 15 26 24 43 22 49 22 46 2z m562 2 c0 -8 -4
-15 -10 -15 -5 0 -10 7 -10 15 0 8 5 15 10 15 6 0 10 -7 10 -15z m170 -4 c0
-13 8 -21 23 -23 16 -2 22 -10 22 -28 0 -18 -6 -26 -22 -28 -15 -2 -23 -10
-23 -24 0 -15 -5 -19 -19 -15 -10 2 -25 1 -32 -4 -10 -6 -4 -9 19 -9 43 0 43
-26 -2 -34 -48 -9 -82 11 -78 47 2 15 -1 27 -7 27 -6 0 -11 -5 -11 -11 0 -8
-5 -8 -15 1 -25 21 -17 30 26 30 29 0 40 -4 36 -12 -3 -9 6 -14 27 -15 17 0
25 1 19 4 -19 7 -16 70 4 93 22 25 33 25 33 1z m-1407 -16 c-3 -9 -8 -14 -10
-11 -3 3 -2 9 2 15 9 16 15 13 8 -4z m784 -47 c-3 -8 -6 -5 -6 6 -1 11 2 17 5
13 3 -3 4 -12 1 -19z m-330 -30 c-3 -8 -6 -5 -6 6 -1 11 2 17 5 13 3 -3 4 -12
1 -19z m-640 -23 c21 22 26 13 10 -18 -13 -24 -14 -24 -25 -6 -7 10 -11 27
-11 36 1 12 3 11 6 -5 4 -20 6 -21 20 -7z m1653 -15 c0 -22 -4 -40 -10 -40 -5
0 -10 18 -10 40 0 22 5 40 10 40 6 0 10 -18 10 -40z m-510 16 c0 -3 -4 -8 -10
-11 -5 -3 -10 -1 -10 4 0 6 5 11 10 11 6 0 10 -2 10 -4z m-1203 -58 c-3 -7 -5
-2 -5 12 0 14 2 19 5 13 2 -7 2 -19 0 -25z m30 10 c-3 -8 -6 -5 -6 6 -1 11 2
17 5 13 3 -3 4 -12 1 -19z m1801 -6 c-19 -4 -39 -61 -32 -89 12 -47 -29 -16
-53 40 -7 15 -13 32 -13 37 0 14 27 12 34 -2 5 -10 7 -10 12 0 3 6 12 12 20
12 8 0 14 7 14 16 0 14 2 15 17 3 13 -12 14 -14 1 -17z m-1541 -4 c-3 -8 -6
-5 -6 6 -1 11 2 17 5 13 3 -3 4 -12 1 -19z m1393 -18 c14 -11 31 -20 38 -20
13 0 17 -36 5 -43 -5 -2 -2 -2 5 -1 6 2 12 2 12 0 0 -3 3 -11 6 -20 10 -26
-33 -20 -47 7 -7 12 -13 24 -13 27 0 3 -6 4 -13 2 -8 -2 -21 4 -30 13 -14 14
-14 18 -2 26 12 8 12 10 -1 19 -13 9 -13 10 0 10 8 0 26 -9 40 -20z m170 -15
c0 -2 -9 -9 -20 -15 -16 -9 -20 -8 -20 5 0 8 9 15 20 15 11 0 20 -2 20 -5z
m-1910 -29 c0 -8 7 -22 15 -30 12 -12 14 -20 5 -36 -15 -27 -23 -25 -16 4 3
14 2 27 -3 30 -12 8 -21 46 -10 46 5 0 9 -6 9 -14z m308 -10 c17 -2 32 1 32 5
0 5 5 9 10 9 6 0 10 -6 10 -14 0 -8 6 -17 13 -19 9 -4 8 -8 -3 -16 -12 -8 -12
-13 5 -30 10 -12 15 -24 10 -29 -4 -4 -10 -2 -12 5 -3 8 -13 2 -28 -15 -14
-15 -25 -22 -25 -15 0 6 7 18 15 27 8 8 15 23 15 33 -1 16 -3 15 -20 -5 -10
-12 -21 -28 -23 -35 -4 -9 -8 -9 -15 2 -8 11 -17 11 -40 3 -21 -7 -33 -7 -41
1 -14 14 -14 2 0 -24 13 -24 -4 -49 -32 -49 -11 0 -18 -3 -18 -7 1 -5 1 -17 0
-28 -1 -14 -4 -16 -9 -7 -9 13 -42 6 -42 -9 0 -5 -3 -9 -7 -9 -12 0 -13 62 -1
93 6 15 15 27 20 27 11 0 62 52 84 85 9 14 20 23 24 20 5 -3 11 -1 15 4 3 6
11 8 18 6 7 -3 27 -7 45 -9z m1596 -21 c-4 -8 -10 -15 -15 -15 -5 0 -9 7 -9
15 0 8 7 15 15 15 9 0 12 -6 9 -15z m-1969 -22 c-13 -19 -14 -28 -6 -31 6 -2
9 -8 6 -13 -4 -5 8 -6 25 -2 31 6 31 5 19 -16 -8 -12 -20 -19 -26 -16 -7 2
-13 -3 -13 -11 0 -11 -6 -15 -20 -11 -22 6 -26 -3 -10 -19 8 -8 6 -15 -5 -24
-8 -7 -15 -19 -15 -26 0 -8 -10 -14 -24 -14 -23 0 -24 3 -24 63 0 61 1 63 45
105 52 48 74 55 48 15z m1515 17 c0 -5 -6 -10 -14 -10 -8 0 -17 -6 -19 -12 -4
-8 -6 -7 -6 4 -1 15 11 25 32 27 4 1 7 -3 7 -9z m-1400 -24 c0 -3 -4 -8 -10
-11 -5 -3 -10 -1 -10 4 0 6 5 11 10 11 6 0 10 -2 10 -4z m1830 -21 c0 -8 -4
-17 -10 -20 -6 -4 -10 5 -10 20 0 15 4 24 10 20 6 -3 10 -12 10 -20z m-41 1
c8 -10 8 -16 -2 -25 -16 -13 -27 -5 -27 21 0 21 13 23 29 4z m211 -38 c1 -21
2 -22 14 -6 16 22 26 13 26 -24 0 -21 -5 -28 -20 -28 -12 0 -20 7 -20 17 0 13
-3 14 -11 6 -9 -9 -7 -16 5 -29 12 -11 15 -24 11 -38 -4 -12 -8 -30 -9 -41 -4
-32 -18 -50 -56 -68 -34 -16 -35 -17 -7 -17 15 0 27 -4 27 -9 0 -5 -13 -9 -30
-9 -22 1 -30 6 -30 20 0 10 -3 17 -7 15 -5 -1 -9 3 -11 8 -1 6 11 13 27 18 35
9 48 25 28 33 -13 5 -13 11 1 47 9 23 22 49 29 58 7 8 13 28 13 42 0 15 5 27
10 27 6 0 10 -10 10 -22z m-2413 -50 c-3 -7 -5 -2 -5 12 0 14 2 19 5 13 2 -7
2 -19 0 -25z m193 2 c0 -5 -5 -10 -11 -10 -5 0 -7 5 -4 10 3 6 8 10 11 10 2 0
4 -4 4 -10z m-155 -50 c3 5 10 10 15 10 10 0 0 -123 -11 -130 -4 -3 -6 -31 -3
-62 4 -49 2 -59 -15 -68 -11 -6 -26 -9 -33 -8 -6 2 -12 -4 -13 -12 0 -8 -11
-16 -25 -18 -21 -2 -26 2 -28 21 -1 14 7 32 18 42 19 17 21 17 40 0 11 -10 20
-13 20 -7 0 6 -4 14 -10 17 -6 4 -6 12 0 23 5 9 13 32 19 50 8 26 7 34 -4 39
-8 3 -15 16 -15 30 0 13 -5 33 -10 43 -7 13 -7 21 0 25 5 3 10 -2 10 -11 0
-14 3 -15 12 -6 10 10 10 17 0 35 l-13 22 20 -23 c11 -13 22 -18 26 -12z m723
-9 c11 -21 18 -42 15 -45 -13 -12 -32 -5 -31 12 0 9 -3 29 -7 45 -10 38 0 34
23 -12z m-81 -21 c-5 -20 15 -45 27 -33 4 4 4 -1 0 -12 -4 -11 -12 -24 -18
-28 -8 -6 -7 -10 2 -14 10 -4 10 -9 -3 -23 -15 -17 -15 -20 0 -44 9 -14 15
-31 13 -38 -3 -7 -11 2 -19 20 -7 17 -19 34 -25 36 -17 6 -36 -45 -39 -102 -1
-26 -3 -57 -4 -68 -1 -16 -7 -21 -25 -19 -18 2 -26 -3 -30 -21 -4 -14 -11 -21
-20 -18 -7 3 -16 -2 -20 -11 -4 -12 0 -19 14 -22 39 -10 20 -23 -25 -16 -43 5
-45 5 -45 -20 0 -14 5 -29 10 -32 6 -3 10 -20 10 -36 0 -26 3 -29 24 -23 13 3
27 1 30 -5 4 -6 19 -11 33 -11 31 0 140 -27 169 -41 16 -8 33 -7 67 5 48 16
78 18 252 18 119 0 122 0 160 -1 17 -1 48 -2 69 -1 22 0 46 -6 56 -15 10 -9
20 -11 26 -6 5 6 28 5 57 -2 38 -8 50 -8 56 2 6 10 10 9 14 -3 4 -9 12 -16 19
-16 7 0 26 -14 42 -30 16 -16 33 -27 39 -23 5 3 12 1 16 -4 7 -12 98 -53 116
-53 7 0 15 -6 18 -14 3 -8 15 -12 31 -9 28 6 96 -39 96 -63 0 -8 6 -14 14 -14
7 0 24 -11 38 -24 13 -14 36 -28 51 -31 16 -4 26 -10 23 -12 -3 -3 1 -18 9
-34 8 -15 15 -37 15 -47 0 -18 -6 -20 -74 -17 -41 1 -79 5 -84 9 -12 7 -54 9
-167 4 -75 -2 -95 -7 -118 -25 -15 -12 -40 -24 -55 -28 -44 -10 -57 -26 -87
-104 -24 -65 -27 -82 -22 -148 3 -41 11 -81 17 -89 10 -11 10 -14 0 -14 -9 0
-8 -5 3 -18 19 -21 22 -42 7 -42 -5 0 -10 -9 -10 -20 0 -24 9 -26 24 -5 10 13
14 13 40 0 42 -22 57 4 36 60 -10 26 -9 27 17 21 20 -5 24 -4 13 3 -29 19 0
23 47 6 95 -33 148 -45 209 -45 75 0 99 7 84 25 -8 9 -3 14 21 19 23 4 30 10
25 21 -4 12 1 15 27 14 17 -1 40 2 50 6 14 6 17 1 19 -26 3 -58 -2 -90 -16
-111 -9 -12 -12 -33 -9 -53 4 -28 -4 -69 -32 -160 -2 -5 -4 7 -4 28 -1 46 -17
48 -25 3 -5 -24 -12 -33 -24 -32 -18 1 -19 -4 -7 -41 5 -19 3 -23 -15 -23 -17
0 -21 5 -17 20 6 24 -12 38 -24 19 -7 -11 -12 -12 -29 -1 -27 16 -49 15 -57
-4 -3 -8 -12 -13 -19 -10 -8 3 -14 1 -14 -4 0 -18 -22 -10 -27 10 -3 11 -9 17
-14 14 -5 -3 -20 6 -34 20 -14 14 -36 28 -49 32 -13 3 -27 15 -31 27 l-6 22
-9 -23 c-6 -13 -14 -21 -19 -17 -5 3 -12 -4 -16 -15 -8 -24 -14 -25 -43 -5
-20 15 -27 14 -89 -13 -38 -16 -85 -35 -105 -42 -21 -6 -38 -18 -38 -26 0 -8
-9 -13 -22 -11 -21 2 -23 -3 -26 -50 l-3 -53 33 -2 c18 0 53 -2 78 -2 28 -1
55 -9 72 -21 26 -19 37 -37 21 -33 -5 1 -41 -2 -81 -6 -44 -5 -97 -4 -135 3
-34 5 -114 12 -177 15 -63 3 -130 10 -147 16 -32 11 -33 14 -33 65 0 30 4 56
8 59 8 5 72 128 72 138 0 3 -12 6 -26 6 -27 -1 -69 -33 -60 -47 3 -4 -3 -17
-14 -28 -55 -60 -104 -194 -56 -154 22 19 30 -6 12 -34 -13 -20 -14 -28 -4
-44 9 -15 16 -17 31 -10 14 8 24 5 44 -15 14 -14 29 -23 34 -20 5 3 15 2 22
-3 22 -13 42 -9 48 12 4 14 12 19 30 17 13 -1 40 -3 59 -3 19 0 40 -4 45 -9 6
-4 28 -10 50 -13 22 -3 67 -11 100 -17 33 -6 75 -12 94 -13 19 -1 36 -7 38
-13 5 -16 -27 -46 -43 -40 -7 3 -16 1 -19 -4 -4 -6 -21 -10 -39 -10 -23 0 -33
-5 -33 -15 0 -11 6 -13 20 -9 14 4 17 3 12 -6 -5 -9 4 -11 35 -8 61 4 65 -19
5 -28 -42 -6 -85 -3 -187 13 -35 5 -36 4 -34 -23 5 -51 17 -70 49 -82 l32 -13
-24 -13 c-24 -14 -24 -14 -3 -20 12 -4 26 -4 32 -1 5 3 10 -3 10 -14 0 -15 6
-21 21 -21 18 0 19 2 9 15 -10 12 -9 15 6 16 11 1 23 1 28 0 5 -1 12 2 15 8 4
6 20 7 43 2 28 -7 38 -5 42 5 3 8 17 19 32 24 14 6 24 16 21 23 -7 20 21 65
53 84 16 9 30 20 30 23 0 4 16 25 36 48 32 38 40 42 80 42 36 0 44 3 44 19 0
35 21 79 41 84 30 8 29 -35 -2 -69 -25 -27 -24 -34 6 -34 23 0 25 -4 25 -40 0
-22 -4 -40 -10 -40 -9 0 -15 21 -11 43 0 4 -3 7 -8 7 -13 0 -22 -73 -10 -81 8
-4 8 -9 1 -13 -6 -3 -12 0 -15 6 -7 19 -36 -21 -37 -49 0 -13 -4 -23 -9 -23
-5 0 -26 -16 -47 -35 -21 -19 -44 -35 -52 -35 -11 0 -12 -3 -3 -14 9 -11 9
-16 0 -21 -7 -5 -9 -22 -6 -45 4 -28 0 -40 -13 -50 -10 -7 -16 -19 -13 -27 3
-8 -2 -13 -15 -13 -15 0 -22 -8 -24 -27 -2 -21 -12 -32 -40 -46 -21 -9 -38
-22 -38 -27 0 -6 -8 -10 -19 -10 -10 0 -24 -7 -31 -15 -7 -9 -21 -13 -30 -10
-9 3 -39 -4 -65 -15 -43 -18 -50 -19 -57 -6 -7 13 -12 13 -29 3 -13 -8 -22 -9
-27 -2 -8 11 -22 13 -137 19 -47 3 -85 0 -92 -6 -7 -6 -20 -8 -28 -4 -22 8
-19 -15 10 -72 26 -51 32 -77 16 -68 -15 9 18 -116 35 -136 9 -9 13 -21 10
-27 -4 -5 -2 -12 2 -15 5 -3 7 -17 4 -31 -3 -21 0 -27 17 -32 16 -4 19 -9 11
-18 -6 -7 -8 -21 -4 -31 4 -14 3 -15 -4 -6 -7 10 -15 8 -39 -12 -20 -17 -37
-24 -49 -19 -12 4 -15 3 -10 -5 4 -8 0 -12 -11 -13 -11 0 -13 -3 -5 -6 6 -2
10 -9 6 -14 -3 -5 -2 -9 3 -10 4 0 17 -3 28 -6 11 -3 52 -8 90 -12 l70 -7 -50
-5 c-104 -12 -401 12 -520 42 -135 34 -379 157 -531 267 -137 99 -312 286
-300 319 6 15 31 15 106 -2 18 -4 41 4 79 27 57 35 66 51 30 56 -19 3 -20 8
-15 70 10 121 45 325 63 369 13 30 24 43 38 43 15 0 16 3 7 9 -22 13 -5 81 20
81 10 0 16 5 13 10 -3 6 -2 10 3 10 5 0 22 -25 37 -55 16 -30 34 -55 42 -55 7
0 22 -9 34 -21 15 -15 24 -18 32 -10 6 6 18 11 27 11 14 0 19 20 29 118 7 64
14 144 16 177 l3 60 -65 2 c-38 2 -72 -2 -80 -9 -10 -8 -12 -8 -8 4 4 9 -9 33
-29 57 -19 23 -37 56 -40 74 -3 18 -13 82 -22 142 -19 124 -22 266 -7 401 15
139 51 174 131 129 25 -14 47 -25 49 -25 3 0 2 13 -2 30 -5 23 0 39 22 72 27
41 30 55 24 128 l-2 25 -14 -25 c-8 -14 -14 -33 -15 -42 0 -10 -4 -18 -8 -18
-13 0 -3 61 16 97 10 21 20 29 27 23 7 -6 14 3 21 25 9 27 7 40 -13 81 -21 45
-22 49 -7 72 12 18 18 21 24 12 5 -7 3 -21 -3 -31 -9 -14 -8 -22 5 -36 9 -10
18 -27 21 -38 4 -18 5 -17 6 3 0 13 5 21 10 18 5 -3 2 -32 -5 -63 -18 -75 -18
-107 -1 -97 9 6 9 4 1 -7 -7 -8 -15 -28 -18 -46 -4 -17 -14 -34 -22 -37 -16
-6 -19 -52 -3 -61 6 -4 8 -13 5 -21 -3 -7 -1 -16 4 -19 6 -4 10 9 10 29 0 39
50 99 75 90 8 -4 17 0 20 8 4 10 15 13 31 10 14 -2 24 0 24 8 0 11 62 -26 68
-42 7 -15 31 -8 42 11 5 11 17 27 26 35 14 15 14 16 -5 16 -13 0 -21 -7 -22
-17 -1 -10 -7 0 -14 22 -10 33 -10 43 1 56 19 22 17 40 -3 37 -14 -2 -18 3
-16 25 2 33 -7 35 -26 5 l-15 -23 -8 25 c-6 18 -6 15 -2 -12 2 -20 0 -39 -6
-43 -5 -3 -10 -15 -10 -26 0 -24 -15 -24 -39 0 -11 11 -22 16 -26 13 -4 -4 -4
5 0 19 4 16 2 30 -4 34 -6 3 -9 11 -5 16 3 5 9 7 14 4 4 -3 6 4 3 15 -4 16 -2
19 11 14 11 -4 16 -1 16 11 0 9 5 13 10 10 6 -3 10 5 10 19 0 15 11 36 27 50
25 24 26 26 10 44 -19 20 -23 37 -7 27 6 -3 10 -1 10 4 0 6 -4 11 -10 11 -5 0
-10 5 -10 10 0 5 3 9 8 8 4 0 18 4 32 10 22 9 19 11 -27 9 -43 -1 -53 -5 -55
-21 -2 -11 -8 -21 -15 -23 -18 -6 2 63 31 108 25 37 25 40 10 64 -10 15 -13
32 -9 46 7 23 8 23 22 -4 7 -15 20 -27 28 -27 8 0 18 -6 22 -14 6 -10 18 -12
48 -6 22 4 30 8 18 9 -33 2 -28 15 12 33 29 13 35 13 35 2 0 -8 -4 -14 -10
-14 -5 0 -10 -9 -10 -20 0 -11 5 -20 11 -20 5 0 8 4 5 9 -5 8 52 28 87 30 38
2 47 5 47 13 0 5 -6 11 -14 14 -12 5 -12 9 0 32 8 15 14 33 14 40 0 6 3 12 6
12 4 0 4 -9 1 -20z m-501 -40 c-12 -14 -29 -40 -36 -58 -16 -41 -32 -52 -20
-15 14 49 23 68 38 86 8 9 11 17 6 17 -5 0 -2 4 6 10 26 16 31 -13 6 -40z m64
-5 c0 -8 -4 -15 -10 -15 -5 0 -7 7 -4 15 4 8 8 15 10 15 2 0 4 -7 4 -15z m270
5 c0 -5 -5 -10 -11 -10 -5 0 -7 5 -4 10 3 6 8 10 11 10 2 0 4 -4 4 -10z m60
-30 c0 -5 -4 -10 -10 -10 -5 0 -10 5 -10 10 0 6 5 10 10 10 6 0 10 -4 10 -10z
m-380 -50 c-6 -12 -14 -19 -17 -16 -4 3 0 18 8 32 7 14 15 21 17 15 2 -5 -2
-20 -8 -31z m120 -16 c0 -9 -23 -48 -37 -62 -17 -18 -17 -10 4 33 14 30 33 47
33 29z m-185 -34 c-3 -4 2 -21 10 -36 17 -33 20 -64 6 -64 -6 0 -13 5 -17 12
-5 7 -2 8 7 3 11 -6 12 -5 2 6 -7 7 -13 22 -13 34 0 12 -5 26 -11 32 -13 13
-3 36 12 27 5 -3 7 -9 4 -14z m-48 -55 c9 -24 -1 -27 -15 -5 -8 13 -8 20 -2
20 6 0 13 -7 17 -15z m741 -7 c-5 -35 -20 -48 -36 -31 -12 12 -12 17 3 33 24
26 37 25 33 -2z m302 -37 c0 -16 -24 -30 -52 -31 -17 0 -6 26 15 36 32 17 37
16 37 -5z m-1180 -26 c0 -9 -6 -12 -15 -9 -8 4 -15 1 -15 -5 0 -6 10 -12 23
-12 18 -1 19 -2 3 -6 -23 -6 -38 9 -30 30 8 21 34 22 34 2z m390 -45 c-18 -11
-22 -7 -14 14 5 13 10 14 18 6 8 -8 7 -13 -4 -20z m10 -50 c0 -11 -7 -20 -15
-20 -13 0 -14 4 -5 20 6 11 13 20 15 20 3 0 5 -9 5 -20z m-217 -10 c-3 -12 -8
-19 -11 -16 -5 6 5 36 12 36 2 0 2 -9 -1 -20z m1167 -15 c-7 -9 -15 -13 -17
-11 -6 6 20 36 26 30 2 -2 -2 -10 -9 -19z m-1300 -14 c-10 -20 -30 -37 -30
-26 0 11 25 45 33 45 4 0 3 -9 -3 -19z m151 -12 c-5 -13 -10 -19 -10 -12 -1
15 10 45 15 40 3 -2 0 -15 -5 -28z m-26 -49 c-11 -18 -22 -11 -20 13 4 33 5
34 16 14 5 -9 7 -22 4 -27z m1613 -768 c43 2 65 -1 71 -10 4 -7 20 -14 35 -15
43 -3 30 -22 -16 -22 -37 0 -43 3 -40 19 3 16 1 18 -10 9 -16 -13 -132 7 -151
27 -9 8 -5 9 18 0 16 -6 58 -10 93 -8z m922 -105 c-1 -27 -17 -50 -47 -66 -19
-9 -23 -20 -23 -55 0 -27 -6 -48 -15 -56 -8 -7 -15 -19 -15 -26 0 -9 -12 -14
-38 -14 -25 0 -43 -7 -55 -20 -22 -26 -23 -90 -2 -90 11 0 15 11 15 40 0 29 4
40 15 40 11 0 15 -11 15 -40 0 -29 -4 -40 -15 -40 -8 0 -15 -7 -15 -15 0 -8
-7 -15 -15 -15 -13 0 -14 -4 -4 -22 9 -16 9 -23 0 -26 -6 -2 -11 -21 -11 -43
0 -21 -4 -39 -10 -39 -5 0 -10 -18 -10 -40 0 -33 4 -42 25 -52 14 -6 25 -15
25 -20 0 -15 -23 -8 -46 13 l-22 21 -21 -21 -21 -21 21 -21 c13 -13 24 -17 32
-11 7 5 23 5 37 1 21 -6 22 -7 5 -8 l-20 -2 20 -15 c19 -14 17 -14 -22 -8 -29
4 -43 3 -43 -5 0 -6 7 -11 15 -11 21 0 19 -5 -10 -34 -14 -14 -25 -32 -25 -41
0 -22 -51 -125 -62 -125 -5 0 -6 -9 -3 -21 6 -17 4 -20 -12 -15 -28 8 -63 -27
-63 -63 0 -33 -22 -43 -37 -18 -4 8 -17 19 -28 25 -11 6 -15 12 -8 12 6 0 17
17 24 38 6 20 16 40 22 43 5 4 0 10 -12 14 -25 8 -27 22 -4 47 9 11 11 18 5
18 -14 0 -16 36 -3 44 5 4 13 40 16 82 4 42 11 71 15 65 3 -7 14 -9 23 -5 21
8 21 10 -3 34 -19 19 -19 20 3 65 12 25 28 45 35 45 7 0 17 12 23 27 6 15 18
35 29 45 10 9 25 43 35 75 9 32 20 65 23 73 3 8 4 23 3 33 -2 14 2 17 23 11
26 -6 37 8 16 21 -18 11 -10 32 16 44 24 10 26 10 22 -6 -4 -16 1 -18 39 -14
l44 3 -3 57 c-4 49 -7 56 -26 59 -38 6 -15 20 25 15 52 -6 86 4 79 22 -7 19 3
47 15 39 5 -3 9 -15 9 -27z m-478 4 c12 33 16 -1 6 -46 -10 -44 -12 -47 -18
-25 -6 22 -8 20 -11 -14 -2 -22 -10 -41 -18 -44 -10 -3 -12 5 -8 34 9 58 28
108 37 94 6 -9 9 -9 12 1z m-71 -202 c-11 -11 -18 -26 -15 -34 7 -18 24 -10
24 11 0 8 5 14 10 14 7 0 9 -18 5 -47 -11 -94 -17 -115 -36 -120 -11 -3 -19
-12 -19 -19 0 -10 -13 -14 -40 -14 -39 0 -40 1 -34 28 8 33 13 39 38 44 24 4
34 28 12 28 -9 0 -16 -4 -16 -10 0 -5 -4 -10 -9 -10 -4 0 -7 10 -6 23 1 12 3
31 4 42 1 23 62 95 79 95 7 0 13 6 13 13 1 6 3 4 6 -6 3 -11 -4 -27 -16 -38z
m36 9 c-3 -8 -6 -5 -6 6 -1 11 2 17 5 13 3 -3 4 -12 1 -19z m433 -53 c11 -13
10 -14 -4 -9 -9 3 -16 10 -16 15 0 13 6 11 20 -6z m-603 -107 c-3 -8 -6 -5 -6
6 -1 11 2 17 5 13 3 -3 4 -12 1 -19z m-1893 -79 c-9 -10 -21 -19 -26 -19 -15
0 -8 29 9 39 26 14 37 2 17 -20z m2426 17 c0 -2 -7 -6 -15 -10 -8 -3 -15 -1
-15 4 0 6 7 10 15 10 8 0 15 -2 15 -4z m-952 -102 c-13 -27 -24 -24 -30 9 -4
20 -1 23 18 19 20 -4 21 -7 12 -28z m402 26 c0 -5 -2 -10 -4 -10 -3 0 -8 5
-11 10 -3 6 -1 10 4 10 6 0 11 -4 11 -10z m-441 -16 c10 -9 -17 -24 -32 -18
-27 10 -22 37 6 28 12 -3 24 -8 26 -10z m418 -36 c-3 -8 -6 -5 -6 6 -1 11 2
17 5 13 3 -3 4 -12 1 -19z m-982 -46 c-3 -3 -11 0 -18 7 -9 10 -8 11 6 5 10
-3 15 -9 12 -12z m1465 -33 c0 -5 -4 -9 -10 -9 -5 0 -10 7 -10 16 0 8 5 12 10
9 6 -3 10 -10 10 -16z m-596 -44 c3 -8 1 -15 -4 -15 -6 0 -10 7 -10 15 0 8 2
15 4 15 2 0 6 -7 10 -15z m46 5 c0 -5 -2 -10 -4 -10 -3 0 -8 5 -11 10 -3 6 -1
10 4 10 6 0 11 -4 11 -10z m-76 -55 c3 -9 0 -15 -9 -15 -8 0 -15 7 -15 15 0 8
4 15 9 15 5 0 11 -7 15 -15z m-2284 -110 c7 -8 10 -26 8 -40 -3 -14 -2 -25 3
-25 5 0 8 -12 8 -27 0 -16 1 -35 1 -43 5 -55 -5 -72 -72 -116 -53 -35 -68 -51
-68 -70 0 -18 -7 -25 -27 -30 -16 -4 -56 -15 -90 -26 -34 -11 -67 -17 -73 -13
-14 8 -13 36 1 33 6 -2 16 10 21 26 12 32 42 66 59 66 6 0 8 7 5 16 -6 16 19
63 41 77 7 4 13 14 13 22 0 9 6 12 17 8 13 -5 15 -2 11 15 -5 17 2 26 29 42
19 11 32 24 29 29 -8 13 21 34 39 28 20 -8 29 11 15 28 -10 12 -9 15 3 15 8 0
20 -7 27 -15z m2780 -135 c0 -5 -7 -10 -16 -10 -8 0 -12 5 -9 10 3 6 10 10 16
10 5 0 9 -4 9 -10z m-530 -80 c0 -5 -5 -10 -11 -10 -5 0 -7 5 -4 10 3 6 8 10
11 10 2 0 4 -4 4 -10z m425 0 c3 -5 -1 -10 -9 -10 -9 0 -16 5 -16 10 0 6 4 10
9 10 6 0 13 -4 16 -10z m-601 -294 c-19 -14 -11 -36 13 -36 9 0 14 -2 11 -5
-3 -4 -17 -3 -31 0 -27 7 -27 17 3 63 12 18 16 20 18 7 2 -9 -4 -22 -14 -29z
m-56 -50 c-7 -8 -15 -12 -17 -11 -5 6 10 25 20 25 5 0 4 -6 -3 -14z m39 -12
c-3 -3 -12 -4 -19 -1 -8 3 -5 6 6 6 11 1 17 -2 13 -5z m897 -516 c14 -6 28
-19 31 -28 3 -10 15 -20 26 -23 11 -3 23 -15 26 -27 4 -15 8 -18 13 -10 5 8
10 1 15 -19 4 -21 12 -31 20 -27 27 10 26 -41 -1 -91 -34 -62 -71 -92 -111
-93 -17 0 -35 -4 -38 -10 -12 -20 -51 -10 -65 16 -12 21 -12 27 0 34 11 7 10
13 -4 35 -15 23 -16 31 -6 56 14 33 8 59 -15 59 -8 0 -15 7 -15 15 0 18 20 16
38 -5 11 -13 12 -10 7 17 -5 25 -1 37 17 55 12 12 21 31 20 40 -4 21 7 22 42
6z m391 -8 c43 0 89 -44 75 -70 -6 -11 -8 -20 -5 -20 4 0 -7 -11 -23 -25 -25
-21 -44 -26 -120 -31 -78 -5 -94 -4 -116 12 -14 11 -26 26 -26 34 0 10 -3 11
-8 3 -5 -8 -12 -7 -27 4 -20 15 -20 15 3 8 13 -4 22 -2 22 5 0 6 4 9 8 6 5 -3
15 10 22 29 10 27 21 35 54 44 60 15 90 18 101 9 5 -4 23 -8 40 -8z m-495 -51
c0 -11 -4 -17 -10 -14 -5 3 -10 13 -10 21 0 8 5 14 10 14 6 0 10 -9 10 -21z
m3 -99 c3 -11 1 -20 -4 -20 -5 0 -9 9 -9 20 0 11 2 20 4 20 2 0 6 -9 9 -20z"/>
<path d="M1845 3910 c-15 -17 -16 -20 -3 -20 9 0 19 7 22 16 10 25 1 27 -19 4z"/>
<path d="M1681 3794 c0 -11 3 -14 6 -6 3 7 2 16 -1 19 -3 4 -6 -2 -5 -13z"/>
<path d="M1802 3617 c-6 -7 -35 -21 -64 -32 -59 -21 -72 -31 -82 -63 -7 -20
-4 -22 27 -22 23 0 40 8 55 25 12 14 26 25 30 25 5 0 15 11 22 25 7 14 19 25
27 25 15 0 18 16 4 24 -5 3 -13 0 -19 -7z"/>
<path d="M1607 3353 c-4 -3 -7 -25 -6 -47 l1 -41 13 30 c22 47 16 83 -8 58z"/>
<path d="M1460 2974 c0 -8 5 -12 10 -9 6 3 10 10 10 16 0 5 -4 9 -10 9 -5 0
-10 -7 -10 -16z"/>
<path d="M2062 2867 c-41 -12 -74 -25 -74 -30 1 -21 11 -28 57 -35 28 -5 59
-13 70 -20 22 -13 20 -13 -85 -17 -25 0 -53 -5 -62 -9 -10 -5 -30 -9 -45 -10
-28 -1 -102 -60 -91 -71 3 -4 29 6 57 21 56 29 165 44 196 27 13 -7 -1 -11
-55 -16 -71 -6 -180 -47 -180 -67 0 -5 33 -8 74 -6 52 2 76 0 80 -9 6 -17 89
-38 130 -33 20 2 36 1 36 -3 0 -4 10 -10 23 -14 20 -6 20 -8 3 -12 -10 -3 -21
0 -25 5 -4 7 -26 8 -61 2 -30 -4 -43 -8 -27 -9 23 -1 40 -20 20 -22 -5 0 -17
-3 -28 -5 -11 -3 -46 -7 -77 -11 -40 -4 -58 -10 -58 -20 0 -30 132 -49 225
-32 33 6 65 12 71 13 6 1 22 9 35 17 23 16 23 16 4 35 -18 19 -18 19 1 22 10
2 24 9 29 16 6 7 20 16 32 20 17 5 24 18 29 53 6 39 11 47 40 59 25 10 34 21
34 37 0 44 -110 130 -170 133 -14 1 -50 4 -80 7 -41 4 -74 0 -128 -16z m108
-257 c-20 -13 -33 -13 -25 0 3 6 14 10 23 10 15 0 15 -2 2 -10z"/>
<path d="M1191 2851 c-10 -7 -12 -26 -6 -90 7 -85 19 -98 28 -32 3 22 15 54
27 71 12 17 21 33 19 34 -6 5 -47 26 -51 26 -2 0 -9 -4 -17 -9z"/>
<path d="M1299 2667 c-39 -30 -42 -89 -6 -95 38 -7 60 43 41 92 -7 19 -14 19
-35 3z"/>
<path d="M2695 2213 c13 -53 85 -102 85 -58 0 8 -8 15 -18 15 -9 0 -23 13 -30
29 -7 16 -20 32 -29 35 -12 5 -14 1 -8 -21z"/>
<path d="M2670 2190 c0 -5 5 -10 10 -10 6 0 10 5 10 10 0 6 -4 10 -10 10 -5 0
-10 -4 -10 -10z"/>
<path d="M2318 2064 c-45 -13 -7 -38 70 -47 54 -6 69 6 37 33 -16 13 -80 21
-107 14z"/>
<path d="M1400 1965 c0 -8 5 -15 10 -15 6 0 10 7 10 15 0 8 -4 15 -10 15 -5 0
-10 -7 -10 -15z"/>
<path d="M1184 1772 c3 -6 21 -13 39 -17 17 -4 40 -9 50 -11 11 -4 17 0 17 10
0 10 -9 16 -24 16 -13 0 -38 3 -56 7 -23 4 -31 3 -26 -5z"/>
<path d="M2230 1740 c-13 -9 -13 -11 0 -20 23 -15 29 -12 23 10 -3 11 -6 20
-7 20 0 0 -8 -5 -16 -10z"/>
<path d="M2285 1690 c4 -6 11 -8 16 -5 14 9 11 15 -7 15 -8 0 -12 -5 -9 -10z"/>
<path d="M2320 1680 c0 -5 5 -10 11 -10 5 0 7 5 4 10 -3 6 -8 10 -11 10 -2 0
-4 -4 -4 -10z"/>
<path d="M2360 1650 c19 -5 41 -4 50 0 10 6 -1 9 -35 9 -48 -1 -49 -1 -15 -9z"/>
<path d="M3600 390 c0 -5 5 -10 10 -10 6 0 10 5 10 10 0 6 -4 10 -10 10 -5 0
-10 -4 -10 -10z"/>
<path d="M3591 304 c0 -11 3 -14 6 -6 3 7 2 16 -1 19 -3 4 -6 -2 -5 -13z"/>
<path d="M4582 293 c-6 -2 -10 -9 -6 -14 3 -5 0 -9 -5 -9 -6 0 -20 -9 -31 -20
l-20 -20 40 0 c39 0 40 1 40 35 0 19 -1 35 -2 34 -2 0 -9 -3 -16 -6z"/>
<path d="M4529 196 c-2 -2 -17 -6 -34 -9 -53 -8 -114 -27 -120 -37 -9 -14 16
-12 45 5 14 8 49 14 78 15 28 0 52 4 52 9 0 5 12 12 28 14 23 3 21 4 -9 6 -20
0 -38 -1 -40 -3z"/>
<path d="M4310 130 c-9 -6 -10 -10 -3 -10 6 0 15 5 18 10 8 12 4 12 -15 0z"/>
<path d="M4576 125 c18 -14 18 -14 -9 -15 -16 0 -26 -4 -22 -10 3 -5 17 -10
31 -10 19 0 24 5 24 25 0 19 -5 25 -22 25 -21 0 -21 0 -2 -15z"/>
<path d="M4270 109 c0 -5 5 -7 10 -4 6 3 10 8 10 11 0 2 -4 4 -10 4 -5 0 -10
-5 -10 -11z"/>
<path d="M4470 110 c8 -5 22 -10 30 -10 13 0 13 1 0 10 -8 5 -22 10 -30 10
-13 0 -13 -1 0 -10z"/>
<path d="M4437 83 c-4 -3 -7 -11 -7 -17 0 -6 5 -5 12 2 6 6 9 14 7 17 -3 3 -9
2 -12 -2z"/>
<path d="M4490 42 c0 -4 9 -8 19 -8 11 0 17 4 15 8 -3 4 -12 8 -20 8 -8 0 -14
-4 -14 -8z"/>
<path d="M4428 8 c9 -9 15 -9 24 0 9 9 7 12 -12 12 -19 0 -21 -3 -12 -12z"/>
</g>
</svg>
